<svg height="512" viewBox="0 0 512 512" width="512" xmlns="http://www.w3.org/2000/svg"><g id="flat"><path d="m144 352-8 24h-72v-24l32-8 24-16z" fill="#fdc9a6"/><path d="m352 376h-56l-48-64-32-48-24 40-48 48-24-24 69.7-97.573a34.451 34.451 0 0 1 28.03-14.427 34.452 34.452 0 0 1 24.361 10.091l69.909 69.909 16 16a70.6 70.6 0 0 1 19.72 38.32z" fill="#0a6fa2"/><path d="m416 144-24-24-8 24 8 20v20h24z" fill="#fdc9a6"/><path d="m352 376 72.778-86.01a157.42 157.42 0 0 0 13.154-17.99l-36.605-61.9-29.119 4.16a23.535 23.535 0 0 0 -17.723 12.774 23.541 23.541 0 0 0 -2.485 10.522v34.444l-24 40a70.6 70.6 0 0 1 19.72 38.32z" fill="#2cbff4"/><rect fill="#ff6268" height="32" rx="16" width="464" x="24" y="376"/><path d="m416 104a25.887 25.887 0 0 0 -23.155 14.311l-.845 1.689 24 24 8-40z" fill="#55300b"/><path d="m432 352a8 8 0 0 1 -6.07-13.206l8-9.334a8 8 0 1 1 12.148 10.413l-8 9.333a7.982 7.982 0 0 1 -6.078 2.794z" fill="#fbb540"/><path d="m456 324a8 8 0 0 1 -6.07-13.207l24-28a8 8 0 0 1 12.148 10.414l-24 28a7.984 7.984 0 0 1 -6.078 2.793z" fill="#fbb540"/><path d="m437.932 272a157.29 157.29 0 0 0 11.351-21.662l7.269-16.961a56.121 56.121 0 0 0 2.862-35.72l-11.414-45.657-3.5-11.832 16.457 16.153 11.043 3.679 8-8v-24l-16-8-19.244-19.244a16.24 16.24 0 0 0 -11.483-4.756h-1.026a16.247 16.247 0 0 0 -16.247 16.247v95.753l-14.673 2.1-1.327 5.9-4.834 19.337a29.51 29.51 0 0 0 4.074 23.524 29.51 29.51 0 0 0 24.552 13.139h14.208" fill="#fdc9a6"/><path d="m416 184h-7.893v-47.893l7.893 7.893z" fill="#f6bb92"/></g></svg>