<svg id="Capa_1" enable-background="new 0 0 512 512" height="512" viewBox="0 0 512 512" width="512" xmlns="http://www.w3.org/2000/svg"><g><path d="m474.625 376.683-54.576-131.757-34.706-7.273-20.41 30.103 45.119 108.927 28.948 10z" fill="#e1bb78"/><path d="m451.498 196.719c24.238-10.04 35.748-37.827 25.708-62.065l-51.541-.3-36.232 36.657c10.039 24.238 37.827 35.748 62.065 25.708z" fill="#e1bb78"/><path d="m415.141 108.946c-24.238 10.04-35.748 37.827-25.708 62.065l87.773-36.357c-10.04-24.238-37.827-35.748-62.065-25.708z" fill="#edd7b0"/><path d="m178.805 236.529-178.805 95.713v44.441l186.068-70.354z" fill="#e1bb78"/><path d="m155.146 231.678-155.146 100.564 186.459-77.234z" fill="#edd7b0"/><path d="m389.433 171.011-164.404 46.449 45.268 57.021 83.155-34.443 11.481 27.718 55.116-22.83z" fill="#e50058"/><path d="m389.378 170.878c-10.568-25.514-39.818-37.63-65.332-27.062l-92.074 38.138.712 53.984 156.749-64.928z" fill="#ff415b"/><path d="m186.068 306.329 84.229-31.848-19.162-46.263-49.232-1.257-33.923 35.701z" fill="#2d2d2d"/><path d="m251.135 228.218-19.163-46.263-.32.133-76.506 49.59 12.834 30.984z" fill="#4b5055"/><path d="m512 376.683h-269.876l-10.001 15 10.001 15h269.876z" fill="#0b799d"/><path d="m0 376.683h242.124v30h-242.124z" fill="#0fa9dd"/></g></svg>